<?xml version="1.0" standalone="no"?>
<!DOCTYPE svg PUBLIC "-//W3C//DTD SVG 20010904//EN"
 "http://www.w3.org/TR/2001/REC-SVG-20010904/DTD/svg10.dtd">
<svg version="1.0" xmlns="http://www.w3.org/2000/svg"
 width="940.000000pt" height="940.000000pt" viewBox="0 0 940.000000 940.000000"
 preserveAspectRatio="xMidYMid meet">

<g transform="translate(0.000000,940.000000) scale(0.100000,-0.100000)"
fill="#000000" stroke="none">
<path d="M1920 7976 l0 -176 84 0 c101 0 142 13 161 51 23 44 19 78 -14 108
-29 27 -29 28 -10 45 15 13 19 27 17 58 -5 61 -33 78 -146 85 l-92 6 0 -177z
m164 108 c20 -19 21 -58 2 -73 -8 -7 -34 -11 -58 -9 -41 3 -43 5 -46 36 -2 19
-1 40 2 48 7 19 80 18 100 -2z m16 -144 c46 -46 13 -92 -63 -88 l-50 3 -4 39
c-6 58 0 66 52 66 32 0 51 -6 65 -20z"/>
<path d="M2313 8130 c-47 -29 -63 -67 -63 -155 0 -109 35 -162 116 -178 61
-12 153 34 140 70 -3 8 -2 11 3 8 29 -17 31 161 3 210 -36 61 -136 84 -199 45z
m104 -30 c40 -15 53 -46 53 -135 0 -70 -2 -75 -31 -99 -17 -14 -39 -26 -49
-26 -10 0 -32 12 -49 26 -30 25 -31 29 -31 103 0 82 13 115 54 131 11 5 21 9
22 9 1 1 15 -4 31 -9z"/>
<path d="M2685 8140 c-11 -4 -31 -20 -45 -35 -23 -25 -25 -34 -25 -131 0 -102
0 -104 31 -134 59 -59 153 -58 211 2 26 27 28 37 31 117 4 102 -9 140 -61 171
-33 21 -105 26 -142 10z m127 -70 c21 -26 25 -143 7 -183 -22 -48 -76 -58
-124 -23 -17 12 -21 28 -24 100 -3 84 -2 86 27 115 16 17 28 32 25 35 -2 2 13
-2 33 -9 21 -7 46 -23 56 -35z"/>
<path d="M2977 8143 c-4 -3 -7 -82 -7 -175 l0 -168 35 0 35 0 0 75 c0 97 13
98 76 0 47 -71 51 -75 87 -75 20 0 37 2 37 5 0 3 -27 46 -61 94 l-60 89 36 48
c39 53 53 70 74 97 12 15 10 17 -27 17 -40 0 -43 -2 -92 -75 -48 -72 -69 -90
-71 -62 0 6 0 40 1 75 l1 62 -29 0 c-16 0 -32 -3 -35 -7z"/>
<path d="M3420 8147 c0 -2 27 -54 61 -117 56 -104 60 -117 58 -169 l-3 -56 32
-3 32 -3 0 64 c0 58 5 72 55 166 30 57 55 107 55 112 0 5 -14 9 -31 9 -29 0
-33 -5 -67 -80 -20 -44 -40 -80 -44 -80 -4 0 -24 36 -44 80 -35 77 -38 80 -70
80 -19 0 -34 -1 -34 -3z"/>
<path d="M3833 8130 c-53 -32 -68 -64 -68 -150 0 -91 16 -133 63 -162 74 -46
177 -17 208 58 19 46 18 158 -2 200 -33 69 -133 96 -201 54z m101 -30 c37 -14
56 -59 56 -135 0 -60 -3 -69 -29 -96 -36 -36 -73 -37 -106 -4 -27 26 -28 31
-26 120 1 67 13 98 45 113 27 14 30 14 60 2z"/>
<path d="M4130 8009 l0 -142 34 -32 c59 -55 157 -53 209 5 27 30 27 32 27 170
l0 140 -30 0 -30 0 0 -133 c0 -127 -1 -135 -23 -155 -29 -28 -67 -28 -101 -1
-26 20 -26 22 -26 155 l0 134 -30 0 -30 0 0 -141z"/>
<path d="M4490 7976 l0 -176 30 0 29 0 3 72 3 73 45 -4 c57 -4 70 -15 70 -60
0 -67 9 -81 47 -81 30 0 34 3 27 18 -4 9 -9 37 -12 62 -3 31 -11 52 -28 68
l-25 24 26 19 c19 16 25 30 25 59 0 70 -44 96 -167 99 l-73 2 0 -175z m164
108 c9 -8 16 -26 16 -39 0 -36 -26 -55 -76 -55 l-44 0 0 55 0 55 44 0 c27 0
51 -6 60 -16z"/>
<path d="M5019 8136 c-42 -24 -62 -64 -67 -138 -9 -127 41 -200 137 -200 62 0
106 23 120 63 16 45 14 49 -18 49 -22 0 -30 -6 -35 -25 -13 -51 -85 -59 -119
-13 -16 21 -21 43 -21 100 -1 79 17 121 56 134 29 9 75 -14 82 -42 5 -19 13
-24 37 -24 29 0 31 2 24 28 -12 50 -48 75 -112 79 -38 2 -67 -2 -84 -11z"/>
<path d="M5331 7988 c-30 -90 -56 -169 -59 -176 -3 -10 4 -13 28 -10 28 2 35
9 45 38 11 34 13 35 73 38 l61 3 12 -41 c11 -37 15 -40 47 -40 29 0 33 3 27
18 -4 9 -31 87 -59 172 l-53 155 -34 3 -34 3 -54 -163z m112 4 c9 -31 17 -60
17 -64 0 -5 -18 -7 -40 -6 -44 1 -48 10 -29 69 6 19 12 40 15 47 7 25 19 10
37 -46z"/>
<path d="M5630 7975 l0 -175 30 0 29 0 3 72 3 73 45 -4 c59 -4 70 -15 70 -66
0 -64 7 -75 46 -75 31 0 34 2 24 19 -5 11 -10 40 -10 65 0 36 -5 48 -26 63
l-27 20 27 26 c32 32 34 74 6 110 -25 32 -75 47 -157 47 l-63 0 0 -175z m162
108 c43 -39 9 -93 -59 -93 l-43 0 0 55 0 55 42 0 c24 0 49 -7 60 -17z"/>
<path d="M1983 7540 c-42 -17 -63 -67 -63 -153 0 -90 15 -129 60 -152 58 -30
130 -12 165 41 22 34 30 127 16 181 -21 77 -100 114 -178 83z m121 -29 c63
-54 60 -209 -5 -255 -35 -24 -93 -21 -126 8 -26 23 -28 31 -32 110 -2 68 0 92
14 112 32 49 106 62 149 25z"/>
<path d="M2260 7383 c0 -203 18 -213 22 -13 l3 135 94 -142 c51 -79 97 -143
102 -143 5 0 9 75 9 167 0 202 -18 213 -22 14 l-3 -134 -94 141 c-52 78 -98
142 -102 142 -5 0 -9 -75 -9 -167z"/>
<path d="M2600 7386 l0 -163 95 -2 c61 -1 95 2 95 9 0 6 -32 10 -85 10 l-85 0
0 155 c0 97 -4 155 -10 155 -6 0 -10 -61 -10 -164z"/>
<path d="M2880 7550 c-7 -65 -2 -316 5 -318 14 -3 19 298 5 312 -5 5 -10 8
-10 6z"/>
<path d="M3010 7385 c0 -206 18 -226 22 -23 l3 141 94 -141 c52 -78 98 -142
103 -142 4 0 8 74 8 165 0 206 -18 226 -22 23 l-3 -141 -94 141 c-52 78 -98
142 -102 142 -5 0 -9 -74 -9 -165z"/>
<path d="M3352 7388 l3 -163 93 -2 c53 -1 92 2 92 7 0 6 -38 10 -85 10 l-85 0
0 70 0 70 69 0 c39 0 73 5 76 10 4 6 -22 10 -69 10 l-76 0 0 65 0 65 86 0 c54
0 83 4 79 10 -3 6 -47 10 -96 10 l-89 0 2 -162z"/>
<path d="M1550 5931 c-19 -11 -44 -34 -55 -53 -20 -33 -20 -52 -21 -1657 -1
-1461 -3 -1625 -17 -1636 -15 -11 -15 -69 1 -105 3 -8 9 -303 12 -655 l5 -640
23 -36 c44 -72 11 -69 872 -69 424 0 770 -2 770 -5 0 -8 -106 -199 -145 -260
-49 -77 -169 -227 -229 -285 -25 -25 -46 -48 -46 -53 0 -4 1396 -6 3103 -5
l3102 3 0 1055 0 1055 -637 0 c-350 0 -631 3 -625 7 7 4 19 8 28 8 9 0 42 17
75 38 42 28 70 57 98 100 l40 62 135 0 c83 0 155 6 186 14 59 16 186 65 199
77 6 5 -80 9 -192 9 -154 0 -203 3 -206 13 -2 6 -8 43 -14 80 -30 195 -197
349 -395 364 -233 18 -427 -136 -471 -373 -12 -67 -13 -69 -42 -68 -16 0 -220
4 -454 9 -234 4 -546 11 -694 14 l-268 6 -18 72 c-25 98 -53 148 -119 213
-115 115 -280 158 -430 111 -87 -27 -141 -62 -209 -136 l-60 -66 -232 2 c-153
1 -235 -2 -243 -10 -5 -5 -12 -34 -14 -63 -4 -52 -3 -54 43 -101 32 -33 79
-64 147 -98 95 -46 105 -49 179 -49 l79 0 18 -42 c30 -68 85 -124 159 -160
l67 -33 -440 0 -440 0 -7 -62 c-4 -34 -14 -78 -24 -98 -17 -37 -88 -105 -110
-105 -6 0 -16 -6 -22 -13 -8 -9 -1 -31 25 -82 32 -65 35 -75 30 -137 -9 -105
-52 -169 -146 -218 -78 -39 -143 -37 -206 5 -19 14 -35 21 -35 17 -1 -4 0
-104 0 -222 1 -208 0 -217 -23 -260 -15 -28 -38 -53 -63 -67 l-39 -23 -947 3
c-939 2 -947 2 -974 23 -15 11 -37 33 -48 48 l-21 27 0 1957 0 1957 1055 0
1055 0 3 -1132 c1 -623 4 -1133 6 -1133 3 0 21 9 40 21 l36 21 0 1359 c0 1493
4 1404 -61 1450 l-34 24 -1040 2 c-1000 2 -1041 2 -1075 -16z m3735 -2762
c112 -31 159 -70 194 -164 26 -70 26 -100 0 -170 -30 -81 -67 -119 -149 -151
-65 -25 -74 -26 -123 -15 -140 32 -211 114 -212 248 0 128 60 209 188 248 53
17 54 17 102 4z m2340 0 c113 -31 153 -65 190 -159 28 -71 30 -92 14 -141 -31
-96 -62 -140 -114 -164 -106 -50 -155 -51 -251 -6 -73 34 -106 77 -130 170
-13 53 -13 63 2 107 36 109 76 151 177 185 62 22 61 22 112 8z m-482 -404 c28
-58 86 -114 156 -148 l67 -32 -1021 0 -1020 0 64 32 c69 35 121 85 152 145
l19 38 783 0 783 0 17 -35z m-568 -344 c218 -78 358 -280 351 -506 -6 -195
-117 -368 -293 -458 -28 -14 -62 -28 -75 -31 -101 -20 -127 -23 -183 -21 -165
9 -317 97 -403 234 -60 96 -81 155 -88 256 -8 99 5 165 52 263 66 137 217 254
369 285 56 11 213 -1 270 -22z"/>
<path d="M2820 4944 c-8 -1 -31 -5 -51 -9 -50 -8 -123 -73 -145 -130 -24 -65
-15 -127 35 -232 23 -48 52 -104 65 -123 13 -19 40 -61 60 -93 21 -32 43 -56
49 -54 27 9 149 214 202 339 32 75 13 174 -45 235 -38 41 -126 75 -170 67z
m97 -126 c55 -55 36 -164 -34 -193 -142 -60 -240 134 -108 214 33 19 113 8
142 -21z"/>
<path d="M6337 4919 c-122 -29 -213 -134 -224 -260 -5 -51 -1 -71 32 -156 21
-54 44 -105 52 -114 7 -8 13 -19 13 -24 0 -16 143 -245 169 -271 l26 -26 35
40 c72 82 228 366 251 457 52 207 -144 403 -354 354z m143 -138 c73 -39 100
-138 58 -213 -58 -102 -219 -101 -270 2 -69 141 75 285 212 211z"/>
<path d="M5759 3939 c-75 -4 -181 -13 -235 -19 -54 -6 -119 -13 -144 -16 -147
-16 -146 -15 -265 -134 -68 -69 -106 -113 -100 -119 6 -5 84 -12 175 -15 173
-7 893 -36 1510 -61 201 -8 408 -17 462 -20 53 -3 99 -2 102 3 8 14 -28 43
-177 141 -158 103 -302 179 -396 210 -113 37 -559 51 -932 30z m213 -44 c5 -6
8 -5 8 3 0 6 12 12 26 12 21 0 25 -4 21 -20 -3 -11 -1 -18 4 -14 5 3 9 -10 10
-28 0 -18 2 -42 5 -53 2 -11 7 -45 9 -75 3 -30 8 -61 10 -68 5 -13 -156 -11
-425 5 -69 4 -167 6 -217 5 -55 -1 -93 2 -93 8 0 5 13 31 30 58 16 27 39 69
50 94 18 41 24 46 58 51 20 3 72 11 116 17 57 9 85 9 102 1 13 -6 24 -7 24 -2
0 4 34 8 76 8 41 1 77 3 80 6 9 8 99 2 106 -8z m424 0 c-3 -8 -1 -15 3 -15 5
0 11 6 14 13 4 14 182 13 201 -2 6 -5 26 -12 45 -16 21 -4 29 -10 21 -15 -8
-5 -5 -9 9 -13 12 -3 21 0 21 6 0 8 3 8 8 2 4 -5 18 -12 32 -14 26 -3 162 -70
194 -95 10 -8 15 -20 11 -26 -5 -8 -1 -10 12 -6 11 3 27 -1 39 -10 18 -14 18
-14 -5 -3 -21 10 -26 9 -38 -7 -7 -10 -13 -33 -13 -51 0 -19 -5 -33 -12 -34
-40 -2 -331 3 -350 6 -13 2 -62 6 -110 9 -48 2 -92 7 -97 10 -5 4 -12 2 -16
-4 -3 -5 -17 -10 -29 -10 -19 0 -27 10 -43 53 -38 101 -45 122 -47 142 0 11
-8 28 -18 38 -9 10 -18 27 -21 38 -5 18 1 19 95 19 85 0 99 -2 94 -15z m-1094
-65 c-3 -8 -19 -32 -35 -53 -29 -37 -30 -38 -51 -20 -21 18 -21 18 -3 -4 18
-21 18 -22 -5 -45 -17 -17 -36 -24 -73 -25 l-50 -3 60 59 c33 33 64 57 69 54
5 -4 6 -1 3 4 -4 6 1 17 11 25 33 29 84 35 74 8z m875 -122 c-3 -8 -6 -5 -6 6
-1 11 2 17 5 13 3 -3 4 -12 1 -19z m20 -70 c-3 -8 -6 -5 -6 6 -1 11 2 17 5 13
3 -3 4 -12 1 -19z"/>
<path d="M4786 3874 c-8 -22 -9 -21 18 -26 13 -3 32 0 41 5 12 6 16 6 11 -1
-4 -7 9 -9 39 -7 25 2 45 1 45 -3 0 -8 -44 -37 -99 -65 -20 -11 -45 -27 -56
-36 -50 -44 -117 -72 -178 -77 -78 -5 -97 -11 -97 -31 0 -14 12 -15 88 -9 l87
6 135 82 c300 182 298 178 106 178 -113 0 -135 -2 -140 -16z"/>
<path d="M2005 3714 c-27 -9 -71 -18 -97 -21 -47 -5 -48 -6 -48 -38 0 -50 35
-87 85 -87 137 -2 416 0 443 3 41 4 62 59 22 59 -11 0 -20 4 -20 9 0 5 -37 19
-82 31 -46 12 -95 29 -110 36 -43 22 -136 26 -193 8z m183 -15 c17 -6 32 -14
32 -19 0 -5 -15 -7 -32 -5 -18 3 -69 7 -113 9 -44 3 -82 5 -84 6 -2 0 -1 3 2
6 4 4 26 9 49 11 24 3 45 7 47 9 6 5 51 -3 99 -17z m-200 -94 c-2 -25 -8 -30
-28 -30 -20 0 -25 5 -25 25 0 14 -3 28 -8 31 -4 3 9 5 28 5 34 -1 36 -3 33
-31z m382 10 c10 -12 10 -18 0 -30 -19 -23 -52 -14 -60 15 -6 23 -4 26 20 28
15 1 33 -5 40 -13z"/>
<path d="M4476 3548 c-3 -7 -7 -25 -10 -40 l-6 -28 69 0 c69 0 69 0 82 33 7
17 14 35 17 40 2 4 -31 7 -72 7 -53 0 -78 -4 -80 -12z"/>
<path d="M4752 3543 c-6 -10 -6 -28 -1 -40 6 -18 16 -23 43 -23 42 0 63 28 46
60 -14 26 -75 28 -88 3z"/>
<path d="M2048 3093 c-3 -24 -8 -28 -35 -30 -39 -2 -49 10 -27 31 8 9 11 16 6
16 -13 0 -37 -30 -62 -77 -16 -32 -19 -46 -11 -60 10 -16 10 -17 11 -1 0 19
28 38 55 38 9 0 22 -13 28 -30 l11 -30 103 0 c76 0 103 3 103 13 0 23 18 39
43 42 27 3 53 -17 43 -34 -6 -8 15 -21 35 -21 5 0 9 13 9 29 0 21 -6 30 -21
34 -12 3 -18 10 -15 16 3 5 -8 13 -26 16 -18 4 -46 17 -62 28 -21 15 -28 17
-24 6 5 -12 -7 -15 -68 -18 l-74 -2 0 30 c0 38 -18 41 -22 4z"/>
<path d="M8216 3084 c-11 -29 -7 -131 7 -141 9 -7 179 -10 220 -4 4 0 7 36 5
79 l-3 77 -111 3 c-95 2 -113 0 -118 -14z"/>
<path d="M3682 2660 c0 -14 2 -19 5 -12 2 6 2 18 0 25 -3 6 -5 1 -5 -13z"/>
<path d="M474 2577 c-2 -7 -3 -482 -2 -1057 l3 -1045 30 -3 c29 -2 34 5 152
202 l123 204 -10 183 c-39 732 -50 1300 -30 1443 8 50 7 72 -1 76 -20 13 -260
9 -265 -3z"/>
<path d="M2053 2503 c32 -4 37 -8 37 -29 0 -23 -2 -24 -70 -24 -38 0 -70 4
-70 9 0 12 21 28 45 35 11 3 -1 4 -26 2 -59 -4 -95 -35 -105 -89 -5 -33 -3
-43 12 -54 27 -19 41 -16 48 12 4 16 13 25 26 25 11 0 20 6 20 13 0 9 2 9 9
-1 4 -8 11 -13 15 -13 20 3 25 -1 19 -16 -4 -11 -3 -14 5 -9 7 4 12 1 12 -8 0
-14 18 -16 115 -16 94 0 115 3 115 14 0 8 9 21 20 29 11 8 17 17 13 20 -4 4 8
2 25 -4 18 -6 29 -15 26 -20 -7 -12 20 -39 39 -39 48 0 61 31 30 69 -19 22
-153 57 -153 40 0 -14 -114 -11 -128 3 -18 18 -15 46 6 51 9 3 -14 4 -53 4
-38 0 -53 -2 -32 -4z"/>
<path d="M1930 2355 c0 -5 5 -17 10 -25 5 -8 10 -10 10 -5 0 6 -5 17 -10 25
-5 8 -10 11 -10 5z"/>
<path d="M1998 2328 c-10 -10 -14 -18 -9 -18 10 0 36 29 30 34 -2 1 -12 -6
-21 -16z"/>
<path d="M2330 2325 c-7 -9 -8 -15 -2 -15 5 0 12 7 16 15 3 8 4 15 2 15 -2 0
-9 -7 -16 -15z"/>
</g>
</svg>
