<?xml version="1.0" standalone="no"?>
<!DOCTYPE svg PUBLIC "-//W3C//DTD SVG 20010904//EN"
 "http://www.w3.org/TR/2001/REC-SVG-20010904/DTD/svg10.dtd">
<svg version="1.0" xmlns="http://www.w3.org/2000/svg"
 width="1200.000000pt" height="675.000000pt" viewBox="0 0 1200.000000 675.000000"
 preserveAspectRatio="xMidYMid meet">

<g transform="translate(0.000000,675.000000) scale(0.100000,-0.100000)"
fill="#000000" stroke="none">
<path d="M0 5140 c0 -1587 0 -1610 19 -1610 11 0 23 5 26 10 4 6 11 8 16 4 13
-8 -8 -34 -27 -34 -28 0 -34 -54 -34 -287 0 -220 1 -236 20 -260 23 -29 23
-32 10 -53 -9 -13 -11 -13 -20 0 -7 11 -10 -3 -8 -49 2 -43 7 -66 16 -69 9 -3
13 3 12 14 -7 59 6 69 32 27 l17 -28 1 25 c1 24 2 23 18 -8 16 -33 16 -34 -8
-53 -21 -16 -22 -19 -7 -19 10 0 16 -4 12 -10 -7 -11 -56 8 -68 27 -18 29 -27
-2 -27 -90 0 -82 1 -89 15 -71 8 10 15 29 15 42 0 12 4 22 9 22 5 0 16 3 25 6
26 10 40 -35 27 -84 -11 -38 -13 -41 -36 -32 -50 19 -55 8 -55 -117 0 -114 0
-115 30 -145 33 -33 37 -50 15 -68 -36 -29 -45 -71 -45 -197 0 -140 0 -140 88
-184 42 -21 92 -74 92 -99 0 -15 -29 -39 -48 -40 -22 0 -72 -52 -72 -75 0 -11
-9 -38 -20 -60 -28 -56 -13 -65 52 -31 43 22 64 27 107 24 73 -4 84 -22 52
-83 -20 -38 -31 -47 -75 -61 -43 -14 -96 -51 -96 -68 0 -3 14 -6 32 -8 21 -2
32 -9 34 -20 1 -10 -2 -18 -7 -18 -4 0 -6 -7 -3 -15 7 -18 -11 -19 -70 -4 -41
10 -43 12 -44 51 -1 22 -6 47 -12 56 -6 11 -9 -227 -10 -690 l0 -708 1723 1
c947 1 1712 4 1699 6 -18 4 -22 9 -16 26 7 22 102 259 169 421 36 87 37 93 40
230 2 165 4 172 121 412 44 88 85 176 93 195 8 19 32 70 53 114 21 44 38 85
38 92 0 6 4 13 8 15 17 6 72 91 72 110 0 19 231 273 330 363 89 81 153 151
196 211 61 90 142 171 193 196 38 18 75 24 211 34 164 11 165 11 248 52 46 23
97 53 114 67 16 14 33 25 38 25 4 0 11 19 15 42 7 37 9 40 20 24 12 -16 15
-16 46 3 19 12 39 21 46 21 7 0 29 11 49 25 45 31 71 31 105 1 31 -27 53 -65
45 -74 -4 -3 -22 -6 -41 -5 -19 1 -35 -3 -35 -7 0 -9 104 -80 117 -80 4 0 13
-9 18 -19 42 -80 73 -122 98 -131 25 -8 30 -7 34 10 6 21 18 26 28 11 3 -5 1
-12 -5 -16 -6 -4 -8 -11 -4 -16 3 -6 11 -5 21 2 9 8 17 9 21 3 4 -5 17 -9 30
-10 17 0 22 5 22 25 0 20 2 23 10 11 8 -13 13 -13 31 -2 12 8 32 11 49 7 26
-6 30 -3 36 20 4 15 0 52 -7 84 -8 31 -14 86 -13 124 0 49 -3 67 -13 67 -15 0
-15 1 -17 57 -2 29 -13 58 -39 97 -31 47 -35 59 -27 81 5 13 7 33 3 42 -13 37
-59 102 -72 103 -9 0 -11 7 -7 23 12 39 11 51 -4 53 -8 0 -18 2 -22 2 -3 1 2
26 13 54 10 29 19 61 19 70 0 25 -26 23 -33 -2 -3 -11 -10 -20 -16 -20 -16 0
-13 36 4 54 19 18 19 45 0 70 -8 11 -15 30 -15 43 0 16 -8 27 -24 33 -27 10
-43 61 -32 98 13 40 17 68 20 122 2 60 26 150 39 150 4 0 15 -16 23 -35 8 -19
16 -35 18 -35 1 0 4 46 5 102 2 95 10 128 33 128 5 0 13 -10 18 -22 l9 -23 0
23 c1 12 15 37 33 54 l31 30 13 -25 c7 -13 21 -27 29 -31 19 -7 60 13 92 43
38 36 55 23 32 -22 -21 -41 -61 -65 -96 -60 -26 5 -33 2 -33 -11 0 -9 -8 -28
-17 -43 -9 -14 -27 -62 -39 -107 -12 -44 -23 -75 -23 -68 -2 25 -29 11 -35
-19 -12 -62 -9 -72 23 -67 17 2 28 2 26 -2 -9 -14 16 -34 42 -35 24 0 29 -5
31 -30 2 -16 8 -34 13 -39 14 -15 59 34 59 64 0 48 29 60 143 60 150 -1 201
10 235 48 30 33 52 41 52 20 0 -9 4 -8 10 2 16 24 13 26 -57 28 -113 5 -112
33 1 57 74 16 207 6 214 -15 2 -6 20 -22 41 -35 20 -14 52 -36 71 -49 19 -14
43 -25 52 -25 9 -1 32 -14 50 -31 18 -17 35 -30 39 -30 12 0 -8 78 -29 112
-12 20 -22 43 -22 52 0 9 -6 16 -12 16 -16 1 -90 110 -112 163 -19 48 -41 50
-33 2 3 -19 2 -35 -4 -35 -5 0 -9 6 -9 13 0 27 -34 45 -77 42 -34 -2 -49 3
-69 22 -21 19 -29 22 -41 12 -11 -10 -16 -10 -22 0 -5 7 -20 18 -34 26 -24 12
-28 12 -37 -6 -11 -20 -40 -26 -40 -9 0 7 -7 7 -21 -1 -15 -8 -24 -8 -32 0
-16 16 -24 14 -30 -9 -6 -25 -27 -27 -27 -2 0 14 -5 12 -23 -9 -19 -23 -72
-49 -98 -49 -37 0 53 155 96 166 14 3 30 16 36 27 10 18 12 19 21 3 11 -20 28
-12 28 15 0 22 15 25 27 7 5 -9 9 -3 13 17 3 17 12 30 20 31 8 0 26 4 39 8 13
5 27 4 33 -2 6 -6 18 -1 33 14 13 13 30 24 37 24 8 0 22 15 32 34 27 50 46 54
79 15 15 -18 27 -36 27 -39 0 -4 11 -12 24 -20 13 -7 27 -22 30 -34 5 -17 8
-18 15 -6 8 12 14 11 35 -9 14 -13 28 -33 32 -43 3 -10 17 -24 32 -32 15 -8
49 -34 75 -59 36 -33 50 -41 54 -30 3 9 -10 32 -34 56 -21 23 -51 60 -65 82
-14 22 -41 56 -59 75 -19 19 -40 47 -46 62 -7 15 -25 35 -40 45 -46 30 -106
90 -97 96 5 3 54 11 109 17 216 27 271 40 337 81 27 16 53 29 58 29 17 0 60
55 60 77 0 12 4 24 9 27 5 3 14 27 20 53 33 133 26 123 79 123 26 0 63 4 82 9
19 5 51 12 70 14 19 3 62 12 95 20 109 29 212 47 228 41 20 -7 67 24 61 40 -9
22 28 28 94 15 49 -10 70 -10 96 -1 18 7 39 12 46 12 14 0 80 28 132 56 36 19
87 18 120 -4 22 -14 25 -21 16 -30 -7 -7 -17 -12 -23 -12 -19 0 -101 -87 -115
-122 -7 -18 -19 -40 -25 -48 -7 -8 -17 -35 -24 -60 -7 -25 -21 -56 -32 -70
l-19 -25 -20 25 c-28 35 -25 46 22 90 l42 39 -29 7 c-17 4 -34 10 -40 14 -20
16 -60 16 -60 0 0 -8 -4 -21 -9 -28 -4 -7 -8 -39 -9 -70 -1 -51 1 -57 19 -60
12 -2 26 -14 32 -28 7 -13 16 -24 22 -24 31 0 44 -148 16 -178 -22 -25 -55
-103 -62 -148 -3 -21 -8 -43 -12 -48 -3 -5 -4 -31 -3 -58 1 -37 -2 -48 -14
-48 -8 0 -15 6 -16 13 0 6 -5 1 -10 -13 -6 -13 -7 -35 -4 -49 3 -13 1 -27 -5
-31 -6 -4 -13 -23 -17 -43 -4 -30 -2 -37 11 -37 9 0 18 -11 22 -27 3 -16 12
-55 20 -88 19 -83 5 -94 -41 -30 -13 18 -14 18 -15 3 0 -10 4 -18 9 -18 4 0
11 -15 14 -32 3 -18 9 -42 13 -52 5 -13 4 -17 -4 -12 -18 11 -32 -28 -32 -91
0 -32 -5 -75 -9 -97 -8 -32 -6 -42 10 -59 12 -13 17 -27 13 -37 -4 -8 -7 -25
-7 -37 1 -20 -4 -23 -33 -23 -19 0 -47 -8 -62 -17 -52 -32 -102 -95 -102 -128
0 -7 -7 -15 -15 -19 -8 -3 -15 -11 -15 -18 0 -11 -61 -58 -75 -58 -3 0 -5 11
-5 25 0 14 5 25 10 25 6 0 10 7 10 16 0 13 -5 11 -25 -7 -13 -13 -25 -31 -25
-39 0 -8 -5 -22 -10 -30 -8 -11 -9 -8 -4 11 8 36 -12 46 -24 11 -10 -29 0 -72
18 -72 12 0 2 -53 -12 -58 -4 -2 -8 -19 -8 -38 0 -24 5 -34 15 -34 23 0 18
-22 -12 -57 -16 -17 -39 -45 -53 -62 -25 -31 -60 -42 -60 -19 0 9 -3 9 -11 1
-6 -6 -12 -23 -11 -37 0 -21 -9 -30 -45 -46 -24 -11 -42 -24 -38 -30 3 -5 1
-10 -4 -10 -6 0 -11 18 -11 40 0 22 -4 40 -8 40 -5 0 -7 14 -4 30 3 22 0 30
-10 30 -11 0 -17 -18 -21 -72 -7 -82 -28 -150 -48 -157 -8 -2 -17 -9 -22 -15
-4 -6 -6 3 -5 19 2 17 -1 31 -6 32 -5 0 -13 8 -18 17 -11 20 -28 21 -28 2 0
-7 -7 -19 -15 -26 -12 -10 -15 -9 -16 6 -1 37 -18 -18 -18 -62 -1 -33 -6 -43
-26 -54 -20 -11 -27 -11 -40 0 -24 20 -34 -1 -27 -56 4 -40 3 -44 -23 -54 -16
-6 -34 -9 -42 -6 -7 3 -24 0 -38 -6 -17 -7 -28 -8 -37 -1 -9 7 -35 8 -78 1
-36 -5 -78 -7 -93 -4 -15 3 -37 1 -47 -4 -11 -6 -29 -15 -41 -21 -12 -6 -24
-8 -27 -5 -3 3 1 6 9 7 8 0 1 5 -14 9 -16 5 -39 5 -52 0 -12 -5 -37 -6 -54 -4
-24 4 -31 1 -31 -10 0 -23 -13 -20 -40 9 -13 14 -30 23 -38 20 -8 -3 -16 3
-19 15 -6 22 -23 27 -23 7 0 -8 -14 -12 -40 -12 -22 0 -40 3 -40 6 0 4 -9 5
-20 2 -29 -8 -25 -33 15 -108 20 -36 40 -91 46 -123 29 -167 118 -306 238
-373 31 -18 71 -43 89 -56 18 -14 39 -22 47 -19 10 3 12 0 8 -12 -5 -14 -3
-13 9 2 9 12 21 17 32 13 12 -5 19 1 26 18 8 21 16 25 48 25 21 0 60 11 87 25
27 13 52 22 57 19 12 -7 38 15 38 31 0 8 13 27 29 43 16 16 35 46 41 68 14 44
56 83 97 90 16 3 30 9 31 15 8 21 131 1 159 -26 7 -8 13 -20 13 -27 0 -7 8
-20 18 -29 9 -8 24 -26 33 -39 9 -14 20 -22 24 -18 5 4 10 43 12 85 6 120 5
119 65 133 29 6 73 14 98 16 25 3 62 14 83 25 23 13 52 20 75 18 50 -4 123 10
140 27 20 21 63 28 83 15 43 -26 95 6 56 34 -12 9 -17 27 -17 64 0 66 12 91
41 84 19 -5 21 -3 16 16 -4 15 2 29 19 46 13 13 24 27 24 31 0 3 8 18 19 32
10 15 21 39 25 54 4 17 31 48 74 82 56 45 70 62 79 99 16 60 42 70 104 43 33
-15 52 -31 63 -54 13 -27 19 -32 31 -22 20 17 79 -15 70 -38 -4 -9 -10 -26
-13 -36 -11 -40 28 -2 270 262 51 56 60 62 85 56 15 -4 34 -16 41 -26 7 -10
23 -18 35 -18 12 0 41 -8 64 -17 33 -14 43 -23 43 -40 0 -16 6 -23 20 -23 16
0 20 -7 20 -31 0 -17 8 -44 17 -60 17 -29 17 -29 -17 -64 -21 -21 -47 -37 -69
-41 -20 -4 -44 -14 -54 -22 -16 -14 -19 -14 -27 -2 -6 8 -10 31 -10 50 0 19
-9 46 -19 60 l-19 24 -7 -37 c-11 -55 12 -133 48 -167 30 -28 34 -29 116 -26
48 2 95 7 106 11 30 12 124 88 125 101 0 7 7 14 14 17 8 3 22 21 32 39 21 43
64 88 83 89 9 0 30 19 46 41 34 47 54 58 56 31 1 -10 5 -2 10 17 4 19 11 47
15 62 5 21 3 28 -9 28 -9 0 -18 -12 -22 -29 -3 -16 -13 -35 -21 -42 -12 -10
-14 -2 -14 49 0 71 11 84 68 78 50 -4 69 -18 93 -71 11 -22 32 -60 47 -85 15
-25 33 -63 40 -86 26 -89 117 -158 242 -185 56 -12 82 -31 200 -146 65 -62 84
-75 133 -88 85 -22 132 -50 164 -96 53 -78 78 -100 163 -143 73 -37 92 -51
133 -107 27 -35 59 -76 72 -91 52 -58 95 -127 129 -203 50 -116 106 -253 122
-303 9 -28 35 -66 74 -106 79 -82 112 -128 139 -198 13 -31 42 -82 66 -112 58
-76 72 -126 79 -296 4 -80 12 -157 18 -172 7 -20 7 -36 -1 -55 -15 -39 -17
-187 -3 -253 7 -30 20 -89 28 -130 9 -41 22 -97 28 -125 l13 -50 181 -3 182
-2 0 185 c0 166 -2 190 -20 225 -27 53 -27 100 0 100 19 0 20 7 20 164 0 92
-4 167 -9 171 -6 3 -9 13 -9 23 1 9 -2 43 -7 74 -6 49 -5 59 9 64 15 6 16 186
16 2145 0 1601 -3 2144 -12 2164 -6 14 -18 25 -25 25 -23 0 -45 28 -38 49 9
30 33 47 47 33 7 -7 16 -12 20 -12 4 0 8 83 8 184 l0 184 -32 7 c-18 5 -39 8
-45 8 -7 0 -13 8 -13 18 0 23 -32 26 -50 4 -25 -30 -69 -44 -121 -38 -41 5
-57 13 -94 49 -24 24 -46 44 -49 44 -7 0 -55 42 -80 69 -11 13 -54 50 -93 83
-71 57 -83 77 -64 107 8 12 21 12 84 1 42 -7 78 -18 81 -25 2 -7 22 -16 43
-20 21 -3 70 -22 109 -41 38 -19 78 -34 87 -34 9 0 17 -4 17 -10 0 -5 8 -10
18 -10 18 -1 74 -29 57 -30 -5 0 -17 -4 -25 -10 -12 -7 -9 -13 14 -33 24 -21
34 -23 60 -16 17 5 46 9 63 9 l33 0 0 420 0 420 -1695 0 c-1042 0 -1695 -4
-1695 -9 0 -15 28 -20 112 -23 43 -2 78 -7 78 -11 0 -4 30 -7 66 -6 53 2 69
-1 79 -15 10 -13 14 -14 18 -4 3 10 8 11 26 1 11 -7 32 -13 45 -13 20 0 25 -6
31 -40 4 -22 11 -40 16 -40 5 0 9 -6 9 -14 0 -8 7 -16 15 -20 10 -4 15 1 15
14 0 13 7 20 20 20 18 0 19 2 8 20 -18 29 1 39 68 36 58 -2 69 -8 61 -30 -8
-19 -67 -32 -77 -16 -5 9 -9 9 -14 1 -4 -6 -2 -11 3 -11 6 0 11 -6 11 -14 0
-10 21 -16 80 -20 44 -3 116 -9 160 -12 55 -4 80 -3 80 5 0 6 18 11 41 11 50
0 49 22 -1 30 -22 3 -35 12 -41 28 -10 27 -9 27 65 2 33 -11 76 -20 98 -20 21
0 37 -3 37 -7 -4 -25 3 -35 21 -30 13 3 25 -3 37 -22 9 -14 18 -30 18 -36 1
-5 5 -28 9 -49 8 -36 6 -42 -18 -61 -22 -18 -26 -27 -20 -48 8 -36 24 -44 31
-18 8 31 20 26 26 -12 10 -60 -1 -84 -40 -90 -19 -4 -49 -3 -65 0 -17 3 -33 1
-37 -4 -4 -7 -27 -6 -71 4 -45 9 -94 12 -157 8 -63 -4 -93 -3 -93 4 0 13 -77
15 -82 2 -3 -11 -97 6 -112 20 -6 5 -18 9 -28 9 -10 0 -18 4 -18 10 0 5 -10
10 -22 9 -56 0 -119 11 -140 25 -12 9 -41 16 -63 16 -58 1 -146 24 -202 53
-26 14 -57 29 -68 33 l-20 6 20 8 c20 9 20 9 -1 9 -11 1 -26 7 -32 13 -30 30
-230 50 -253 25 -7 -7 -28 -11 -52 -8 -26 2 -43 -1 -49 -10 -8 -11 -9 -10 -4
4 9 29 -23 20 -35 -10 -6 -16 -13 -23 -17 -17 -4 6 -24 14 -45 18 -21 4 -41
14 -44 22 -3 7 -13 14 -24 14 -10 0 -22 6 -26 14 -26 46 -190 130 -275 140
-32 4 -60 11 -63 16 -3 5 -13 8 -23 8 -9 -1 -44 6 -77 15 -60 16 -115 20 -210
17 l-50 -1 50 -15 c28 -8 77 -19 110 -24 76 -12 127 -24 150 -37 17 -10 17
-11 -4 -18 -12 -4 -49 -4 -81 0 -57 7 -130 -7 -130 -24 0 -4 -17 -17 -38 -28
-36 -21 -66 -54 -90 -100 -11 -21 -10 -21 21 -16 19 3 62 -2 96 -11 34 -9 81
-16 104 -16 56 0 190 -25 252 -46 28 -9 66 -29 85 -44 19 -15 44 -30 55 -34
32 -10 64 -41 75 -72 l11 -29 -31 33 c-29 30 -46 37 -78 33 -7 -1 -15 5 -18
13 -3 9 -25 18 -52 22 -26 3 -52 10 -58 15 -6 5 -58 12 -115 15 -89 6 -106 4
-118 -10 -7 -9 -22 -16 -33 -16 -25 0 -19 -22 8 -27 10 -2 44 -6 74 -9 102
-10 125 -15 109 -25 -8 -5 -29 -9 -47 -9 -45 0 -67 -14 -86 -51 -12 -25 -13
-34 -3 -45 27 -31 37 -44 38 -51 1 -19 69 -62 121 -77 31 -9 60 -21 63 -26 3
-6 21 -10 40 -10 19 0 37 -4 40 -10 15 -24 -129 4 -162 32 -12 10 -18 9 -29
-7 -18 -25 -18 -81 0 -88 8 -3 16 -16 18 -29 2 -15 11 -24 26 -26 16 -2 22
-10 22 -27 0 -13 7 -28 16 -33 14 -8 14 -12 3 -31 -10 -15 -11 -24 -3 -29 6
-4 14 -33 17 -64 6 -60 -8 -108 -30 -108 -20 0 -27 -49 -13 -91 7 -21 17 -39
22 -39 5 0 6 -4 3 -10 -3 -6 5 -10 19 -10 19 0 24 -4 19 -15 -4 -11 4 -19 25
-27 32 -12 52 -43 52 -80 0 -15 -3 -18 -12 -11 -24 18 -58 13 -58 -8 0 -10 5
-19 12 -19 6 0 8 -3 5 -7 -4 -3 1 -12 11 -19 14 -11 14 -13 2 -14 -13 0 -13
-1 0 -10 12 -8 10 -10 -10 -10 -14 -1 -77 -3 -140 -4 -63 -2 -149 1 -190 6
-41 5 -122 11 -180 13 -58 2 -117 6 -131 9 -21 4 -29 0 -38 -20 -12 -28 -35
-23 -26 6 5 17 -18 36 -39 31 -11 -3 -51 13 -133 51 -41 19 -70 27 -87 22 -13
-3 -34 0 -46 6 -18 10 -24 9 -31 -1 -6 -10 -11 -10 -22 -1 -9 8 -45 12 -98 10
-46 -1 -109 2 -139 6 -30 4 -75 8 -100 9 -25 2 -59 10 -76 19 -17 9 -44 18
-60 20 l-29 3 -2 -70 c-5 -124 -24 -150 -58 -76 l-18 40 -81 -2 c-74 -2 -81
-4 -81 -22 0 -17 -7 -20 -54 -21 -32 -1 -57 -6 -59 -12 -2 -7 -12 -12 -22 -12
-10 0 -22 -5 -25 -11 -4 -6 -13 -8 -21 -5 -7 3 -16 1 -19 -4 -4 -6 -16 -10
-28 -10 -13 0 -31 -6 -42 -14 -23 -15 -74 -26 -79 -17 -3 4 6 29 20 56 13 28
24 60 24 72 0 35 31 46 57 21 12 -11 29 -18 37 -15 13 5 14 11 4 33 -10 21
-17 25 -40 20 -15 -3 -28 -2 -28 3 0 5 -8 8 -17 7 -15 -1 -18 7 -17 54 2 64
18 187 33 246 24 97 162 368 205 404 9 7 16 18 16 24 0 6 17 29 37 51 57 62
51 133 -7 75 -17 -17 -22 -18 -47 -5 -15 8 -33 15 -40 15 -7 0 -16 6 -20 13
-4 6 -15 12 -23 12 -8 0 -16 8 -18 18 -4 20 24 24 31 5 3 -7 6 -2 6 10 3 79
55 172 96 172 6 0 20 9 30 21 l19 20 18 -23 c14 -18 20 -20 27 -9 6 9 11 10
15 2 11 -17 26 -3 26 23 0 39 109 116 145 102 7 -2 21 2 32 9 28 22 35 18 28
-15 l-6 -29 29 27 c16 15 46 39 68 53 107 71 153 99 165 99 6 0 31 10 55 21
28 14 49 19 61 14 28 -12 82 -15 88 -4 4 5 17 9 31 9 13 0 24 5 24 10 0 7
-630 10 -1870 10 l-1869 0 25 -37 c13 -20 33 -43 44 -50 27 -19 16 -33 -23
-32 -18 0 -55 -3 -84 -7 -50 -6 -53 -5 -64 20 -12 25 -49 37 -49 16 0 -5 5
-10 10 -10 6 0 10 -16 10 -35 0 -19 -4 -35 -10 -35 -5 0 -10 14 -10 30 l0 30
-60 0 c-57 0 -60 -1 -60 -25 0 -14 5 -25 10 -25 6 0 10 -7 10 -15 0 -8 9 -15
20 -15 11 0 20 -4 20 -10 0 -5 7 -10 15 -10 9 0 27 -11 40 -25 14 -13 25 -19
25 -12 0 7 6 3 12 -7 10 -18 38 -45 98 -97 14 -11 47 -32 74 -46 27 -14 56
-31 64 -39 7 -8 20 -14 27 -14 8 0 18 -6 22 -12 4 -7 40 -28 78 -47 39 -19 89
-48 112 -63 24 -16 62 -35 85 -44 23 -8 49 -21 58 -28 8 -7 41 -26 73 -41 32
-15 62 -36 68 -46 5 -11 16 -19 24 -19 8 0 15 -7 15 -15 0 -9 9 -15 25 -15 14
0 25 -4 25 -10 0 -5 6 -10 13 -10 8 0 30 -16 50 -35 21 -20 37 -33 37 -30 0 4
12 -3 26 -14 15 -12 40 -21 56 -21 39 0 123 -45 144 -78 29 -45 76 -82 105
-82 29 0 45 -14 51 -45 3 -15 10 -19 32 -17 18 3 26 0 22 -7 -4 -6 -14 -11
-22 -11 -8 0 -14 -7 -14 -16 0 -8 4 -13 10 -9 19 12 50 -34 50 -75 0 -37 2
-40 28 -41 16 0 21 -3 12 -6 -8 -3 -18 -10 -22 -16 -4 -6 -24 -4 -56 7 -28 9
-80 16 -116 16 -36 0 -66 4 -66 8 0 5 -18 21 -40 38 -22 16 -40 37 -40 47 0 9
-4 17 -10 17 -5 0 -25 14 -45 31 -32 28 -40 31 -79 25 -34 -5 -45 -4 -49 9 -4
8 -18 20 -32 27 -14 6 -25 17 -25 24 0 6 -16 15 -35 18 -19 3 -51 9 -71 12
-24 4 -34 11 -30 20 3 8 -1 14 -9 14 -9 0 -15 -10 -16 -22 0 -19 -3 -17 -16
12 -17 40 -31 52 -55 46 -11 -2 -20 4 -23 15 -4 11 -14 18 -23 17 -11 -2 -18
5 -20 17 -3 18 -90 68 -155 89 -10 3 -16 10 -12 15 5 8 -52 31 -78 31 -4 0
-18 12 -31 27 -22 25 -29 27 -120 29 -71 2 -100 7 -112 18 -8 9 -27 19 -42 23
-30 7 -68 29 -94 56 -14 13 -35 17 -91 17 -95 0 -112 12 -108 74 2 36 -1 46
-13 46 -10 0 -13 6 -9 15 3 10 -6 26 -24 43 -16 15 -33 35 -36 45 -4 10 -17
17 -30 17 -56 0 -97 68 -97 158 0 35 -3 40 -17 36 -10 -4 -3 3 15 15 17 11 32
25 32 31 0 20 -59 10 -89 -16 -21 -17 -29 -20 -25 -10 4 9 3 16 -2 14 -5 -1
-19 3 -32 10 -12 7 -57 18 -100 23 -42 6 -95 13 -117 16 -22 3 -45 13 -52 22
-10 12 -15 13 -21 4 -9 -14 -82 -6 -82 8 0 5 -19 9 -43 9 -24 0 -47 4 -53 9
-20 20 -152 23 -1011 27 l-893 4 0 -1610z m6737 1594 c-3 -3 -12 -4 -19 -1 -8
3 -5 6 6 6 11 1 17 -2 13 -5z m1034 -153 c-8 -5 -20 -7 -28 -4 -21 8 -15 13
15 13 20 0 23 -3 13 -9z m-4711 -20 c0 -6 -4 -13 -10 -16 -5 -3 -10 1 -10 9 0
9 5 16 10 16 6 0 10 -4 10 -9z m5274 -353 c-10 -36 -26 -58 -20 -28 3 14 6 31
6 38 0 6 5 12 11 12 6 0 8 -9 3 -22z m-5769 -137 c3 -5 1 -12 -5 -16 -5 -3
-10 1 -10 9 0 18 6 21 15 7z m-437 -143 c-1 -15 4 -35 12 -45 24 -29 40 -61
40 -79 0 -12 7 -15 30 -12 43 6 37 -8 -7 -17 -24 -4 -39 -3 -41 4 -5 16 -29
14 -57 -5 -22 -15 -27 -15 -48 -1 -13 8 -29 33 -37 56 -7 23 -17 41 -22 41
-17 0 -7 36 17 62 14 15 25 32 25 37 0 5 9 13 20 16 12 4 20 15 20 28 1 18 5
14 25 -18 14 -22 24 -52 23 -67z m6122 -29 c0 -6 -4 -7 -10 -4 -5 3 -10 11
-10 16 0 6 5 7 10 4 6 -3 10 -11 10 -16z m-185 -9 c3 -5 2 -10 -4 -10 -5 0
-13 5 -16 10 -3 6 -2 10 4 10 5 0 13 -4 16 -10z m-260 -30 c-3 -5 -10 -10 -16
-10 -5 0 -9 5 -9 10 0 6 7 10 16 10 8 0 12 -4 9 -10z m353 -7 c12 -3 25 -9 28
-14 8 -14 -24 -10 -56 6 -32 17 -42 32 -12 20 9 -4 27 -10 40 -12z m73 -34
c12 -6 37 -26 57 -46 40 -38 26 -34 -50 14 -49 30 -54 58 -7 32z m-5961 -79
c0 -5 -7 -10 -15 -10 -8 0 -15 5 -15 10 0 6 7 10 15 10 8 0 15 -4 15 -10z
m6294 -16 c3 -8 2 -12 -4 -9 -6 3 -10 10 -10 16 0 14 7 11 14 -7z m-6484 -4
c0 -5 -7 -10 -16 -10 -8 0 -12 5 -9 10 3 6 10 10 16 10 5 0 9 -4 9 -10z m6507
-42 c-3 -8 -6 -5 -6 6 -1 11 2 17 5 13 3 -3 4 -12 1 -19z m-4830 -90 c-3 -8
-6 -5 -6 6 -1 11 2 17 5 13 3 -3 4 -12 1 -19z m4886 -17 c3 -14 1 -18 -9 -14
-8 3 -14 11 -14 19 0 21 17 17 23 -5z m-6657 -108 c40 -37 41 -39 35 -88 -4
-35 -11 -50 -21 -50 -10 0 -14 -8 -12 -21 3 -26 -22 -38 -48 -24 -10 6 -37 10
-59 10 -22 0 -43 5 -46 10 -3 6 4 10 16 10 20 0 21 1 7 18 -11 12 -16 40 -17
95 l-1 77 53 0 c47 0 57 -4 93 -37z m2791 -12 c21 -11 58 -29 83 -39 25 -11
81 -36 125 -57 44 -21 105 -48 135 -62 160 -72 341 -166 380 -197 25 -20 51
-36 58 -36 6 0 21 -9 33 -21 l21 -21 -27 -14 c-15 -8 -34 -14 -41 -14 -15 0
-49 -17 -75 -38 -13 -10 -25 -9 -63 5 -39 15 -50 15 -68 4 -16 -10 -22 -10
-28 -1 -4 7 -14 10 -21 8 -16 -6 -51 10 -45 20 2 4 -25 21 -59 37 -55 26 -63
33 -58 52 4 18 -1 25 -21 33 -14 5 -26 16 -26 25 0 10 -11 15 -37 17 -21 0
-50 2 -65 2 -14 1 -24 -2 -22 -6 3 -4 -6 -8 -21 -8 -31 0 -95 60 -95 88 0 26
-17 39 -62 47 -22 4 -38 13 -38 21 0 8 -7 14 -15 14 -8 0 -15 6 -15 13 0 7
-13 21 -30 30 -16 10 -30 22 -30 26 0 5 -19 16 -42 26 -32 12 -39 19 -27 26 7
5 22 9 32 9 11 0 21 9 24 21 5 19 11 21 54 16 27 -3 65 -15 86 -26z m-1219
-108 c2 -8 -5 -13 -17 -13 -12 0 -21 -5 -21 -12 0 -6 -2 -9 -5 -7 -2 3 -2 15
2 27 6 24 33 27 41 5z m297 -53 c7 0 16 6 18 13 3 7 6 5 6 -5 1 -24 -35 -43
-43 -22 -3 9 -6 21 -5 27 0 8 2 8 6 0 2 -7 11 -13 18 -13z m-275 1 c0 -5 -6
-11 -12 -14 -19 -6 -49 4 -42 14 7 12 54 12 54 0z m3460 -117 c0 -8 -5 -12
-10 -9 -6 4 -8 11 -5 16 9 14 15 11 15 -7z m-726 -70 c25 -24 19 -40 -23 -58
-53 -24 -85 -18 -89 16 -2 19 2 28 17 33 12 3 21 12 21 20 0 29 40 24 74 -11z
m679 -21 c-7 -2 -19 -2 -25 0 -7 3 -2 5 12 5 14 0 19 -2 13 -5z m165 -12 c3
-10 -3 -11 -29 -6 -19 5 -53 8 -76 7 -24 0 -43 4 -43 9 0 16 143 6 148 -10z
m1592 -79 c0 -7 -4 -10 -10 -7 -5 3 -10 16 -10 28 0 18 2 19 10 7 5 -8 10 -21
10 -28z m2718 26 c18 -18 15 -28 -8 -28 -13 0 -20 7 -20 20 0 23 10 26 28 8z
m72 -48 c0 -19 7 -20 109 -20 63 0 112 4 116 10 11 18 23 11 18 -10 -4 -14 0
-20 10 -20 26 0 29 -16 16 -80 l-12 -61 -31 7 c-41 9 -86 35 -86 51 0 7 -5 13
-12 13 -6 0 -26 11 -44 25 -18 14 -44 25 -58 25 -20 0 -26 5 -26 21 0 14 -5
19 -15 16 -8 -4 -17 -2 -20 3 -4 6 -1 10 4 10 6 0 11 7 11 15 0 8 5 15 10 15
6 0 10 -9 10 -20z m-5090 -15 c0 -8 -4 -15 -10 -15 -5 0 -10 7 -10 15 0 8 5
15 10 15 6 0 10 -7 10 -15z m2340 -41 c0 -8 -4 -12 -10 -9 -5 3 -10 13 -10 21
0 8 5 12 10 9 6 -3 10 -13 10 -21z m-355 6 c11 -5 16 -9 12 -9 -5 -1 0 -18 11
-38 67 -132 80 -171 87 -256 10 -116 -14 -185 -81 -236 -24 -18 -44 -37 -44
-42 0 -12 27 -11 35 1 3 6 20 10 36 10 l30 0 -17 -31 c-17 -35 -89 -109 -104
-109 -6 0 -10 -6 -10 -13 0 -23 -68 -85 -101 -92 -59 -13 -94 -12 -142 6 l-49
18 7 -41 c6 -32 4 -39 -6 -36 -10 3 -14 22 -14 56 1 32 -3 48 -10 44 -5 -3 -4
2 4 11 7 9 11 26 8 38 -3 11 1 36 9 55 8 19 12 39 9 44 -8 12 17 50 32 50 6 0
13 17 15 38 3 34 6 37 31 35 24 -2 27 2 27 28 0 17 -7 33 -19 41 -19 11 -18
15 5 80 5 13 13 16 35 11 18 -3 29 -1 29 6 0 25 33 8 87 -44 63 -61 93 -69
111 -30 21 46 14 69 -29 106 -23 19 -45 43 -49 54 -4 11 -33 34 -65 50 -76 40
-85 52 -57 75 12 10 22 23 22 29 0 6 3 10 8 9 17 -6 82 43 88 66 6 27 23 31
59 16z m374 -85 c0 -5 -4 -3 -9 5 -5 8 -9 22 -9 30 0 16 17 -16 18 -35z
m-2538 18 c8 -10 26 -45 39 -77 39 -98 65 -137 160 -234 74 -77 91 -100 96
-133 9 -52 -16 -77 -83 -85 -104 -12 -188 -37 -216 -63 -22 -20 -27 -22 -21
-7 6 15 4 16 -12 8 -63 -31 -115 -29 -137 6 -5 7 -20 17 -33 22 -13 5 -24 16
-24 24 0 8 -10 18 -21 21 -18 6 -20 12 -15 44 4 20 11 61 15 91 19 133 104
354 148 388 25 18 87 15 104 -5z m153 9 c3 -5 24 -9 46 -10 49 -2 77 -15 84
-40 3 -10 19 -26 36 -35 16 -10 30 -22 30 -28 0 -5 12 -14 26 -19 14 -6 23
-14 20 -19 -3 -5 6 -17 20 -26 20 -13 28 -14 34 -5 4 7 13 9 20 5 7 -4 33 -10
58 -12 36 -3 43 -1 38 12 -4 11 1 15 17 15 14 0 26 10 34 25 7 16 7 25 1 25
-6 0 -3 11 6 25 9 13 18 35 20 47 3 26 4 26 140 35 69 4 90 3 98 -8 8 -11 11
-11 15 -1 6 16 53 -32 53 -54 0 -127 -387 -269 -611 -225 -67 14 -80 24 -127
101 -21 36 -92 187 -92 197 0 7 29 2 34 -5z m-408 -70 c-22 -5 -30 3 -21 18 5
8 11 7 22 -2 15 -12 14 -13 -1 -16z m684 -88 c0 -8 -5 -12 -10 -9 -6 4 -8 11
-5 16 9 14 15 11 15 -7z m1889 -36 c-1 -41 -1 -42 -11 -15 -5 15 -7 34 -4 42
10 27 16 16 15 -27z m-3035 -74 c11 -28 6 -39 -9 -20 -8 11 -15 23 -15 28 0
14 18 9 24 -8z m229 -31 c2 -5 7 -20 11 -36 5 -19 3 -26 -6 -25 -7 2 -12 -3
-10 -9 3 -18 -15 -16 -22 2 -12 32 12 94 27 68z m-173 -68 c0 -8 -2 -15 -4
-15 -2 0 -6 7 -10 15 -3 8 -1 15 4 15 6 0 10 -7 10 -15z m220 -45 c0 -5 -4
-10 -10 -10 -5 0 -10 5 -10 10 0 6 5 10 10 10 6 0 10 -4 10 -10z m-838 -27
c23 -15 38 -33 36 -42 -7 -37 -89 -49 -428 -60 -179 -7 -345 -16 -370 -21
-163 -31 -243 -42 -470 -60 -140 -12 -282 -25 -315 -30 -314 -49 -450 -61
-512 -45 -37 9 -13 31 50 45 29 6 69 18 90 26 20 8 83 17 140 20 56 4 145 15
197 26 96 19 192 31 550 68 325 33 409 41 556 50 78 4 151 13 162 19 11 6 58
11 104 12 67 0 121 6 167 18 3 0 22 -11 43 -26z m1614 -65 c-6 -15 -14 -28
-18 -28 -12 0 -10 38 2 45 6 3 10 16 11 28 0 21 1 21 8 2 4 -10 3 -32 -3 -47z
m-676 -98 c0 -11 -5 -20 -11 -20 -5 0 -8 -4 -5 -8 3 -5 -13 -8 -35 -7 -21 1
-39 4 -39 8 0 4 0 11 0 16 0 10 45 29 73 30 11 1 17 -6 17 -19z m120 -491 c0
-10 -4 -19 -10 -19 -5 0 -10 12 -10 26 0 14 4 23 10 19 6 -3 10 -15 10 -26z
m-43 -121 c-3 -8 -6 -5 -6 6 -1 11 2 17 5 13 3 -3 4 -12 1 -19z m2070 -13 c-4
-8 -2 -17 3 -20 6 -4 10 -20 10 -37 0 -24 -3 -28 -13 -19 -8 6 -17 8 -20 4
-12 -12 -7 47 5 67 15 23 23 26 15 5z m-7440 -475 c7 0 10 -7 6 -16 -8 -20
-104 -16 -111 5 -3 10 2 12 22 7 17 -4 26 -2 26 5 0 7 9 9 23 5 12 -3 27 -6
34 -6z m8903 -144 c0 -46 -13 -96 -25 -96 -7 0 -15 -9 -18 -20 -9 -35 -28 -22
-26 18 1 20 -2 56 -6 80 -6 34 -5 42 7 42 9 0 21 7 29 16 12 14 14 14 26 -2 7
-10 13 -27 13 -38z m-224 -82 c-7 -25 -28 -54 -40 -54 -3 0 -6 12 -6 26 0 14
4 23 9 19 5 -3 12 4 16 15 10 30 28 25 21 -6z m-1362 -131 c9 -25 15 -47 13
-49 -4 -4 -41 -6 -84 -5 l-43 1 0 40 0 40 40 0 c30 0 40 4 40 16 0 27 18 5 34
-43z m-7108 -18 c9 -35 0 -52 -30 -57 -34 -7 -65 25 -50 50 9 14 37 27 66 31
4 1 10 -10 14 -24z m7202 -52 c12 -24 4 -43 -18 -43 -10 0 -21 -6 -23 -12 -3
-8 -6 -6 -6 5 -1 9 -5 17 -11 17 -5 0 -10 5 -10 10 0 6 7 10 15 10 9 0 18 7
21 15 8 20 21 19 32 -2z m-7648 -22 c0 -6 12 -9 28 -8 23 2 27 -2 30 -28 2
-24 -4 -37 -26 -57 -42 -37 -83 -44 -100 -17 -11 17 -11 24 1 37 8 10 22 32
31 50 16 30 36 43 36 23z m383 -34 c13 -53 0 -64 -70 -60 -83 5 -83 5 -83 19
0 20 41 54 64 54 12 0 30 7 41 15 27 21 38 14 48 -28z m10117 -121 c0 -8 -4
-17 -9 -20 -10 -7 -23 19 -14 28 11 11 23 6 23 -8z m-10733 -40 c16 -14 58
-34 94 -45 64 -21 65 -22 94 -83 17 -34 34 -60 39 -59 10 3 26 -19 26 -37 0
-7 -10 -17 -22 -22 -13 -5 -17 -9 -10 -9 6 -1 12 -5 12 -10 0 -16 -111 -5
-128 12 -8 9 -16 31 -17 49 -3 47 -16 97 -27 104 -5 3 -31 0 -59 -6 -47 -12
-52 -11 -90 14 -36 24 -40 31 -37 63 3 33 6 36 37 40 19 2 37 5 39 8 10 9 20
5 49 -19z m373 -112 c18 -6 44 -43 36 -51 -3 -3 -25 -8 -49 -10 -42 -5 -45 -4
-49 21 -6 29 16 61 36 51 6 -3 18 -8 26 -11z m197 -32 c-10 -10 -17 -26 -17
-35 0 -9 -4 -19 -10 -22 -6 -4 -10 10 -10 34 0 38 2 41 27 41 25 0 25 -1 10
-18z m-539 -224 l43 -23 -6 -64 c-4 -36 -14 -75 -22 -87 -8 -13 -14 -27 -14
-31 2 -14 -81 -15 -135 -3 -46 11 -50 15 -46 36 2 13 19 39 37 58 30 32 32 39
27 85 l-5 51 39 0 c22 0 58 -10 82 -22z m220 -100 c7 -7 12 -22 12 -34 0 -17
-8 -24 -30 -29 -16 -4 -34 -4 -40 0 -11 7 -14 58 -3 68 11 11 48 8 61 -5z
m298 -79 c4 -24 -2 -51 -19 -91 -27 -61 -17 -56 -131 -73 -19 -3 -45 -17 -58
-30 -13 -14 -29 -25 -35 -25 -16 0 -17 -12 -1 -28 7 -7 9 -12 4 -12 -4 0 0
-10 8 -22 9 -12 16 -35 16 -50 0 -21 -6 -29 -25 -33 -14 -3 -36 -7 -49 -10
-28 -6 -49 15 -65 67 -9 27 -22 42 -49 55 -31 15 -37 24 -40 54 -4 43 17 69
54 69 29 0 71 20 106 51 18 16 40 23 81 25 78 4 137 22 144 42 4 9 12 21 20
25 7 4 13 15 13 24 0 29 20 -1 26 -38z m-186 -451 c0 -7 3 -22 6 -34 4 -14 -4
-32 -22 -53 l-27 -33 29 -23 29 -23 -27 -11 c-20 -7 -36 -7 -55 0 -24 9 -30 7
-46 -13 -11 -13 -15 -24 -8 -26 21 -7 -20 -35 -52 -36 -18 -1 -36 -5 -40 -11
-5 -5 -6 0 -2 12 6 22 -1 32 -49 66 -18 13 -18 14 7 20 20 6 27 15 33 49 10
49 10 55 -1 87 -7 23 -7 23 41 16 68 -11 124 -7 141 10 18 18 43 19 43 3z
m2967 -34 c2 -7 -7 -14 -21 -18 -13 -3 -32 -9 -43 -12 -13 -4 -15 -3 -4 4 10
7 3 11 -24 14 -29 3 -44 -1 -65 -19 -16 -13 -37 -23 -48 -23 -11 0 -22 -5 -24
-10 -5 -15 -85 -17 -99 -3 -9 9 -9 16 1 28 7 8 8 15 2 15 -5 0 -15 -7 -22 -15
-16 -20 -44 -19 -61 1 -21 26 12 45 55 32 25 -8 44 -7 75 3 52 18 272 19 278
3z m-427 -19 c0 -24 -27 -35 -74 -31 -26 2 -50 7 -53 10 -11 11 -33 6 -33 -8
0 -18 -67 -28 -90 -13 -16 9 -23 7 -43 -11 -23 -22 -29 -23 -108 -14 -68 7
-90 6 -116 -6 -30 -14 -34 -14 -52 2 -21 19 -57 14 -76 -9 -17 -21 -59 -25
-89 -10 -16 8 -38 15 -50 15 -12 0 -27 5 -34 12 -9 9 -12 9 -12 0 0 -7 -14
-12 -34 -12 -19 0 -37 -6 -39 -12 -4 -10 -7 -10 -15 0 -9 13 -90 11 -222 -4
-19 -3 -64 -4 -99 -4 -42 0 -67 -4 -73 -12 -5 -9 -8 -6 -8 9 0 17 -7 22 -32
25 -49 5 -45 24 8 32 72 9 162 7 169 -5 12 -18 57 -31 69 -19 7 7 1 10 -19 10
l-29 0 37 19 c31 16 63 19 199 21 197 3 187 5 181 -20 -6 -22 4 -25 27 -10 11
7 12 10 2 10 -8 0 -12 8 -10 17 5 26 163 27 200 1 28 -19 58 -15 58 8 0 21
143 20 160 -1 17 -20 50 -19 66 3 10 13 32 18 106 22 105 6 128 3 128 -15z
m645 15 c5 -7 -11 -9 -47 -5 -40 4 -48 3 -33 -5 18 -9 17 -10 -5 -5 -14 2 -37
5 -52 5 -16 0 -28 5 -28 10 0 14 157 13 165 0z m-2144 -71 c16 -6 29 -15 29
-20 0 -5 9 -9 20 -9 23 0 26 -10 8 -28 -25 -25 -169 -8 -153 17 3 5 -3 12 -12
15 -9 4 -20 1 -24 -5 -4 -6 -26 -13 -50 -15 -38 -3 -45 0 -55 21 -7 13 -10 26
-8 27 10 10 220 8 245 -3z m83 -9 c-10 -4 -21 -6 -24 -3 -8 7 24 22 34 16 5
-4 1 -10 -10 -13z m-359 -10 c3 -11 4 -24 1 -28 -8 -13 23 -52 41 -52 26 0 8
-11 -33 -20 -40 -9 -79 3 -68 22 11 17 -39 -2 -56 -21 -9 -10 -30 -20 -47 -24
-27 -5 -33 -3 -39 16 -5 12 -7 28 -6 35 2 7 -7 12 -21 12 -13 0 -34 9 -47 20
-12 11 -27 17 -32 14 -5 -3 -19 -7 -31 -9 -85 -13 -142 -26 -151 -35 -13 -13
-29 -13 -21 0 4 6 -7 10 -25 10 -37 0 -32 -16 8 -25 15 -3 40 -17 57 -30 l29
-24 -23 -21 c-26 -21 -51 -27 -51 -10 0 6 5 10 10 10 18 0 11 18 -10 25 -11 3
-20 15 -20 26 0 12 -7 19 -19 19 -11 0 -26 6 -33 14 -8 7 -29 16 -48 19 -57 9
-70 13 -82 25 -22 22 6 35 64 28 64 -7 179 -7 268 -1 147 11 290 12 290 3 0
-6 10 -3 23 5 31 23 64 21 72 -3z m957 -21 c-5 -11 -11 -20 -15 -20 -4 1 -12
1 -19 1 -6 0 -3 9 8 19 25 26 35 26 26 0z m-138 -4 c-4 -8 -8 -15 -10 -15 -2
0 -4 7 -4 15 0 8 4 15 10 15 5 0 7 -7 4 -15z m396 -11 c0 -2 -9 -4 -21 -4 -11
0 -18 4 -14 10 5 8 35 3 35 -6z m-340 -26 c0 -3 3 -14 7 -24 6 -15 2 -16 -37
-10 -53 8 -64 14 -51 29 10 13 81 17 81 5z m-1576 -37 c3 -5 -1 -12 -10 -15
-22 -9 -24 -8 -24 9 0 16 25 21 34 6z m146 -30 c0 -12 -56 -22 -77 -13 -13 5
-7 9 22 13 22 3 43 7 48 8 4 0 7 -3 7 -8z m-456 -16 c-4 -9 -1 -15 7 -15 10 0
10 -3 1 -12 -14 -14 -17 -11 -26 20 -6 16 -3 22 8 22 10 0 13 -6 10 -15z
m2734 3 c-5 -15 -42 -22 -64 -14 -25 10 -5 26 32 26 24 0 34 -4 32 -12z m8842
-64 c0 -27 -20 -54 -40 -54 -28 0 -34 18 -16 45 18 28 56 34 56 9z m-11205 -3
c7 -12 -31 -25 -45 -16 -5 3 -10 10 -10 16 0 12 47 12 55 0z m840 -1 c3 -5 -3
-10 -15 -10 -12 0 -18 5 -15 10 3 6 10 10 15 10 5 0 12 -4 15 -10z m685 -90
c0 -5 -9 -10 -20 -10 -11 0 -20 5 -20 10 0 6 9 10 20 10 11 0 20 -4 20 -10z
m-1770 -30 c0 -5 -8 -10 -17 -10 -15 0 -16 2 -3 10 19 12 20 12 20 0z m1570
-60 c0 -5 -7 -10 -15 -10 -8 0 -15 5 -15 10 0 6 7 10 15 10 8 0 15 -4 15 -10z
m9647 -387 c3 4 15 1 27 -5 11 -7 30 -13 40 -15 11 -2 27 -10 36 -18 9 -8 22
-15 28 -15 6 0 26 -6 44 -14 18 -8 52 -20 76 -27 47 -14 48 -17 27 -45 -8 -10
-15 -25 -15 -33 0 -7 -11 -22 -25 -33 -14 -11 -25 -26 -25 -34 0 -10 -12 -14
-39 -14 -40 0 -71 25 -71 58 0 20 -98 112 -120 112 -25 0 -28 48 -4 57 15 5
15 7 0 15 -9 5 -16 14 -16 20 0 7 6 6 15 -2 9 -7 18 -10 22 -7z m148 -363 c-3
-5 -17 -10 -31 -10 -13 0 -24 5 -24 10 0 6 14 10 31 10 17 0 28 -4 24 -10z
m92 -20 c50 -24 80 -72 57 -91 -12 -10 -21 -6 -44 16 -17 16 -30 37 -30 47 0
11 -4 16 -10 13 -5 -3 -10 0 -10 9 0 8 -6 17 -12 19 -7 3 -8 6 -2 6 5 1 29 -8
51 -19z"/>
<path d="M8175 4370 c-3 -5 -2 -10 4 -10 5 0 13 5 16 10 3 6 2 10 -4 10 -5 0
-13 -4 -16 -10z"/>
<path d="M340 1340 c0 -11 7 -20 15 -20 8 0 15 9 15 20 0 11 -7 20 -15 20 -8
0 -15 -9 -15 -20z"/>
<path d="M2065 1409 c-14 -5 -1 -8 39 -8 33 -1 57 1 55 3 -10 9 -76 13 -94 5z"/>
<path d="M1138 1363 c-28 -7 -21 -24 10 -21 15 1 37 -4 49 -10 14 -8 24 -9 28
-2 3 6 -2 13 -12 16 -10 3 -26 10 -35 15 -10 5 -19 8 -20 8 -2 -1 -11 -3 -20
-6z"/>
<path d="M11600 564 c0 -8 5 -12 10 -9 6 4 8 11 5 16 -9 14 -15 11 -15 -7z"/>
<path d="M2671 6724 c5 -15 12 -31 15 -36 9 -15 34 13 34 38 0 20 -5 24 -30
24 -28 0 -29 -2 -19 -26z"/>
<path d="M2740 6710 c0 -38 2 -40 30 -40 28 0 30 2 30 40 0 38 -2 40 -30 40
-28 0 -30 -2 -30 -40z"/>
<path d="M2808 6708 c-2 -36 -8 -45 -32 -57 -22 -10 -25 -15 -15 -22 19 -12
39 -11 39 2 0 17 27 39 49 39 18 0 21 6 21 40 0 38 -2 40 -29 40 -28 0 -30 -3
-33 -42z"/>
<path d="M8400 6743 c0 -5 14 -16 30 -25 20 -11 28 -22 24 -32 -4 -10 -1 -16
8 -16 7 0 34 -22 58 -50 25 -27 50 -50 56 -50 6 0 17 -6 24 -14 15 -19 40 -10
40 14 0 12 -6 17 -17 16 -10 -2 -29 7 -42 20 -20 20 -23 31 -18 66 2 24 8 51
12 61 6 15 -1 17 -84 17 -50 0 -91 -3 -91 -7z"/>
<path d="M2880 6720 c0 -13 7 -20 20 -20 23 0 26 10 8 28 -18 18 -28 15 -28
-8z"/>
<path d="M6559 6603 c-13 -16 -12 -17 4 -4 9 7 17 15 17 17 0 8 -8 3 -21 -13z"/>
<path d="M7035 6588 l-30 -32 35 22 c19 11 36 26 38 31 7 20 -13 10 -43 -21z"/>
<path d="M6479 6557 c-38 -47 -56 -86 -63 -139 -10 -65 6 -61 29 7 10 30 22
55 26 55 11 0 49 74 49 95 0 23 -13 18 -41 -18z"/>
<path d="M6896 6538 c-25 -28 -44 -54 -41 -56 5 -5 71 66 88 95 16 26 -1 12
-47 -39z"/>
<path d="M2780 6570 c0 -5 5 -10 10 -10 6 0 10 5 10 10 0 6 -4 10 -10 10 -5 0
-10 -4 -10 -10z"/>
<path d="M9040 6527 c-1 -20 -2 -20 -11 -4 -5 9 -17 17 -24 17 -11 0 -15 -14
-15 -55 0 -52 1 -55 25 -55 14 0 25 -4 25 -10 0 -5 9 -19 20 -30 11 -11 20
-30 20 -41 0 -16 5 -20 20 -16 13 3 20 0 20 -8 0 -7 15 -19 34 -25 19 -6 37
-16 40 -23 2 -7 5 -4 5 6 1 12 9 17 30 17 25 0 29 4 33 32 4 24 -1 37 -18 55
-13 13 -28 23 -34 23 -5 0 -10 11 -10 25 0 22 -4 25 -39 25 -33 0 -40 4 -45
25 -4 16 -13 25 -26 25 -11 0 -20 6 -20 14 0 8 -7 16 -15 20 -11 4 -15 -1 -15
-17z"/>
<path d="M6540 6498 c-11 -18 -20 -44 -20 -58 1 -23 2 -22 16 10 39 87 40 107
4 48z"/>
<path d="M7054 6485 c-4 -8 -10 -13 -14 -10 -5 3 -17 -6 -27 -21 -10 -15 -28
-36 -40 -49 -23 -22 -32 -75 -14 -75 16 0 85 43 98 61 7 9 39 26 72 38 33 12
70 31 83 42 l23 20 -60 -5 c-33 -3 -72 -9 -88 -12 -22 -5 -26 -4 -21 10 3 9 3
16 0 16 -4 0 -9 -7 -12 -15z"/>
<path d="M6266 6453 c-19 -38 -32 -118 -17 -109 6 4 11 15 11 25 0 9 4 21 9
27 10 10 25 84 17 84 -3 0 -12 -12 -20 -27z"/>
<path d="M6890 6470 c-8 -5 -12 -12 -9 -15 4 -3 12 1 19 10 14 17 11 19 -10 5z"/>
<path d="M6372 6450 c0 -14 2 -19 5 -12 2 6 2 18 0 25 -3 6 -5 1 -5 -13z"/>
<path d="M6825 6460 c-3 -5 -1 -10 4 -10 6 0 11 5 11 10 0 6 -2 10 -4 10 -3 0
-8 -4 -11 -10z"/>
<path d="M6342 6408 c-16 -16 -15 -48 2 -48 12 0 25 28 26 53 0 11 -15 8 -28
-5z"/>
<path d="M6852 6370 c0 -14 2 -19 5 -12 2 6 2 18 0 25 -3 6 -5 1 -5 -13z"/>
<path d="M7935 4890 c3 -5 8 -10 11 -10 2 0 4 5 4 10 0 6 -5 10 -11 10 -5 0
-7 -4 -4 -10z"/>
<path d="M6690 4143 c1 -13 29 -59 30 -48 0 21 -13 55 -21 55 -5 0 -9 -3 -9
-7z"/>
<path d="M6285 4090 c-3 -5 -1 -10 4 -10 6 0 11 5 11 10 0 6 -2 10 -4 10 -3 0
-8 -4 -11 -10z"/>
<path d="M7916 4001 c-10 -16 2 -48 21 -55 28 -11 32 8 9 38 -15 18 -26 24
-30 17z"/>
<path d="M6840 3961 c0 -5 5 -13 10 -16 6 -3 10 -2 10 4 0 5 -4 13 -10 16 -5
3 -10 2 -10 -4z"/>
<path d="M6910 3846 c0 -9 5 -16 10 -16 6 0 10 4 10 9 0 6 -4 13 -10 16 -5 3
-10 -1 -10 -9z"/>
<path d="M7962 3765 c0 -16 2 -22 5 -12 2 9 2 23 0 30 -3 6 -5 -1 -5 -18z"/>
<path d="M7070 3772 c0 -5 7 -17 15 -28 15 -19 20 -8 9 20 -6 17 -24 22 -24 8z"/>
<path d="M6551 3653 c-1 -6 -4 -20 -7 -30 -5 -17 -5 -17 6 0 6 10 9 23 6 30
-3 9 -5 9 -5 0z"/>
<path d="M7541 3136 c-11 -13 -11 -20 -3 -28 15 -15 24 -5 20 23 -3 21 -4 21
-17 5z"/>
<path d="M7572 3081 c1 -16 -3 -35 -9 -43 -6 -7 -14 -29 -18 -49 -5 -28 -3
-38 9 -42 12 -5 16 0 16 23 0 15 7 41 17 57 10 19 14 39 9 56 -9 36 -27 35
-24 -2z"/>
<path d="M7500 3045 c0 -14 5 -25 10 -25 6 0 10 11 10 25 0 14 -4 25 -10 25
-5 0 -10 -11 -10 -25z"/>
<path d="M7602 2960 c0 -14 2 -19 5 -12 2 6 2 18 0 25 -3 6 -5 1 -5 -13z"/>
<path d="M7310 2825 c0 -15 4 -24 10 -20 6 3 10 12 10 20 0 8 -4 17 -10 20 -6
4 -10 -5 -10 -20z"/>
<path d="M7310 2748 c0 -7 5 -20 10 -28 8 -12 10 -9 10 13 0 15 -4 27 -10 27
-5 0 -10 -6 -10 -12z"/>
<path d="M7137 2696 c-4 -10 -5 -21 -2 -24 9 -9 17 6 13 25 -3 17 -4 17 -11
-1z"/>
<path d="M7040 2657 c0 -19 16 -31 24 -18 3 5 -1 14 -9 21 -12 10 -15 10 -15
-3z"/>
<path d="M6117 2514 c-8 -8 13 -74 39 -123 44 -84 114 -296 114 -344 0 -27 79
-158 99 -165 10 -4 12 0 6 14 -4 11 -15 76 -24 146 -9 70 -22 133 -29 140 -6
6 -12 20 -12 30 0 11 -7 32 -15 48 -9 17 -13 40 -9 54 3 13 0 35 -7 48 l-13
23 -6 -30 c-11 -64 -49 -15 -68 89 -6 30 -15 44 -39 57 -17 10 -33 15 -36 13z"/>
<path d="M6761 2484 c0 -11 3 -14 6 -6 3 7 2 16 -1 19 -3 4 -6 -2 -5 -13z"/>
<path d="M8439 2234 c-12 -14 -11 -16 5 -13 11 2 21 10 24 17 5 17 -13 15 -29
-4z"/>
<path d="M8240 2048 c-74 -43 -113 -121 -89 -182 31 -83 31 -83 88 -101 31
-10 62 -23 68 -28 21 -16 64 0 186 66 36 21 47 23 47 12 0 -8 -4 -15 -10 -15
-5 0 -2 -9 7 -20 23 -27 33 -9 33 61 0 113 -87 203 -169 175 -18 -6 -26 -4
-33 8 -5 9 -17 16 -27 16 -10 0 -24 7 -31 15 -16 19 -27 18 -70 -7z"/>
<path d="M8661 1782 c-7 -13 -11 -26 -8 -28 8 -8 29 25 25 38 -3 8 -9 4 -17
-10z"/>
<path d="M6714 1333 c-6 -21 -2 -31 21 -49 15 -12 44 -24 64 -28 20 -3 45 -11
54 -19 26 -19 12 -47 -24 -47 -38 0 -39 -27 -1 -36 15 -3 40 -10 56 -15 16 -5
31 -9 32 -9 2 0 4 14 4 30 0 39 19 39 27 0 6 -34 23 -51 23 -23 -1 36 -39 103
-64 113 -14 5 -45 27 -68 48 -75 68 -113 79 -124 35z"/>
<path d="M95 1330 c-3 -5 1 -10 9 -10 9 0 16 5 16 10 0 6 -4 10 -9 10 -6 0
-13 -4 -16 -10z"/>
<path d="M7440 1310 c0 -6 7 -10 15 -10 8 0 15 2 15 4 0 2 -7 6 -15 10 -8 3
-15 1 -15 -4z"/>
<path d="M7441 1254 c0 -11 3 -14 6 -6 3 7 2 16 -1 19 -3 4 -6 -2 -5 -13z"/>
<path d="M6991 1214 c0 -11 3 -14 6 -6 3 7 2 16 -1 19 -3 4 -6 -2 -5 -13z"/>
<path d="M7520 1170 c0 -5 7 -10 16 -10 8 0 12 5 9 10 -3 6 -10 10 -16 10 -5
0 -9 -4 -9 -10z"/>
<path d="M7518 1114 l-4 -35 18 23 c21 28 23 48 4 48 -8 0 -15 -14 -18 -36z"/>
<path d="M7266 965 c9 -21 21 -68 28 -103 l11 -63 16 35 c9 20 12 33 8 30 -5
-3 -9 4 -9 14 0 11 -7 25 -15 32 -8 7 -15 20 -15 30 0 10 -9 28 -20 41 l-20
24 16 -40z"/>
<path d="M7361 914 c-29 -34 -21 -41 9 -9 13 14 21 27 18 30 -2 3 -15 -7 -27
-21z"/>
</g>
</svg>
