<svg version="1.2" xmlns="http://www.w3.org/2000/svg" width="37" height="38"><style></style><g id="Objects"><g id="&lt;Group&gt;"><path id="&lt;Path&gt;" d="M7.8 2.4H3.2c-.2 0-.4.2-.4.4v29.6c0 .3.2.5.4.5h4.6q.2 0 .3-.2l21.8-21.3c.3-.3.7-.1.7.3v12c0 .3-.2.5-.4.5H23q-.2 0-.3.1l-2.7 3c-.3.3-.1.8.3.8h9.9c.2 0 .4.2.4.4v3.9c0 .3.2.5.5.5h4.3c.3 0 .5-.2.5-.5V2.8c0-.2-.2-.4-.5-.4h-5q-.2 0-.3.1L8.7 24.3c-.2.2-.7.1-.7-.3V10.7c0-.4.4-.6.7-.3l5.5 4.4c.2.1.4.1.6-.1l2.9-2.8c.2-.2.2-.5 0-.7L8.1 2.5q-.1-.1-.3-.1z" style="fill:#fff"/></g></g></svg>