<svg version="1.2" xmlns="http://www.w3.org/2000/svg" viewBox="0 0 37 38" width="37" height="38">
	<title>Flat_gradient_banner_template_collection_001-ai</title>
	<style>
		tspan { white-space:pre } 
		.s0 { fill: #ffffff } 
	</style>
	<g id="Objects">
		<g id="&lt;Group&gt;">
			<g id="&lt;Group&gt;">
				<path id="&lt;Path&gt;" class="s0" d="m7.8 2.4h-4.6c-0.2 0-0.4 0.2-0.4 0.4v29.6c0 0.3 0.2 0.5 0.4 0.5h4.6q0.2 0 0.3-0.2l21.8-21.3c0.3-0.3 0.7-0.1 0.7 0.3v12c0 0.3-0.2 0.5-0.4 0.5h-7.2q-0.2 0-0.3 0.1l-2.7 3c-0.3 0.3-0.1 0.8 0.3 0.8h9.9c0.2 0 0.4 0.2 0.4 0.4v3.9c0 0.3 0.2 0.5 0.5 0.5h4.3c0.3 0 0.5-0.2 0.5-0.5v-29.6c0-0.2-0.2-0.4-0.5-0.4h-5q-0.2 0-0.3 0.1l-21.4 21.8c-0.2 0.2-0.7 0.1-0.7-0.3v-13.3c0-0.4 0.4-0.6 0.7-0.3l5.5 4.4c0.2 0.1 0.4 0.1 0.6-0.1l2.9-2.8c0.2-0.2 0.2-0.5 0-0.7l-9.6-8.7q-0.1-0.1-0.3-0.1z"/>
			</g>
			<g id="&lt;Group&gt;">
			</g>
		</g>
	</g>
</svg>